<?xml version="1.0" standalone="no"?>
<!DOCTYPE svg PUBLIC "-//W3C//DTD SVG 20010904//EN"
 "http://www.w3.org/TR/2001/REC-SVG-20010904/DTD/svg10.dtd">
<svg version="1.0" xmlns="http://www.w3.org/2000/svg"
 width="225.000000pt" height="225.000000pt" viewBox="0 0 225.000000 225.000000"
 preserveAspectRatio="xMidYMid meet">

<g transform="translate(0.000000,225.000000) scale(0.100000,-0.100000)"
fill="#000000" stroke="none">
<path d="M697 1954 c-74 -23 -151 -103 -172 -179 -17 -58 -14 -123 9 -177 7
-16 -2 -18 -100 -20 -153 -4 -148 5 -152 -276 -4 -237 2 -278 45 -311 25 -20
38 -21 374 -21 l349 0 0 310 0 310 75 0 75 0 0 -310 0 -310 349 0 c336 0 349
1 374 21 43 33 49 74 45 311 -4 281 1 272 -152 276 -98 2 -107 4 -100 20 4 9
11 40 17 67 31 159 -130 324 -291 300 -117 -17 -216 -79 -278 -172 l-39 -58
-39 58 c-86 130 -261 202 -389 161z m128 -145 c24 -6 61 -26 82 -44 38 -33 95
-119 108 -163 l7 -24 -145 4 c-167 3 -191 13 -216 85 -13 36 -12 43 5 79 12
24 32 46 54 56 41 21 47 21 105 7z m725 -17 c14 -10 31 -37 39 -59 13 -36 12
-43 -5 -79 -30 -62 -65 -74 -222 -74 l-133 0 6 23 c13 43 71 130 108 162 65
56 152 67 207 27z"/>
<path d="M440 581 c0 -132 3 -247 6 -256 16 -40 51 -45 334 -45 l270 0 0 270
0 270 -305 0 -305 0 0 -239z"/>
<path d="M1200 550 l0 -270 270 0 c283 0 318 5 334 45 3 9 6 124 6 256 l0 239
-305 0 -305 0 0 -270z"/>
</g>
</svg>
